<svg xmlns="http://www.w3.org/2000/svg" viewBox="0 0 520 110" fill="none">
  <!-- ===== CAMERA / VIDEO ICON ===== -->
  <rect x="8" y="22" width="54" height="42" rx="8" fill="none" stroke="#7B2FBE" stroke-width="3"/>
  <circle cx="35" cy="43" r="13" fill="none" stroke="#7B2FBE" stroke-width="2.5"/>
  <circle cx="35" cy="43" r="7" fill="#7B2FBE" opacity="0.6"/>
  <rect x="50" y="28" width="12" height="8" rx="3" fill="#7B2FBE" opacity="0.7"/>

  <!-- Signal arcs (orange) -->
  <path d="M70 30 Q82 30 82 43 Q82 56 70 56" stroke="#E8650A" stroke-width="3" stroke-linecap="round" fill="none"/>
  <path d="M75 36 Q83 36 83 43 Q83 50 75 50" stroke="#E8650A" stroke-width="2.5" stroke-linecap="round" fill="none" opacity="0.7"/>
  <circle cx="71" cy="43" r="3" fill="#E8650A"/>

  <!-- Signal bars (teal) at bottom -->
  <rect x="8"  y="72" width="12" height="5" rx="2.5" fill="#00BCD4"/>
  <rect x="24" y="72" width="22" height="5" rx="2.5" fill="#00BCD4" opacity="0.8"/>
  <rect x="50" y="72" width="12" height="5" rx="2.5" fill="#00BCD4" opacity="0.6"/>
  <rect x="8"  y="82" width="18" height="5" rx="2.5" fill="#00BCD4" opacity="0.5"/>
  <rect x="30" y="82" width="14" height="5" rx="2.5" fill="#00BCD4" opacity="0.35"/>

  <!-- ===== TEXT ===== -->
  <text x="104" y="58" font-family="Poppins, Arial, sans-serif" font-size="40" font-weight="800" letter-spacing="-1">
    <tspan fill="#22038C">NexMeet</tspan>
    <tspan fill="#7B2FBE"> AI</tspan>
  </text>
  <text x="106" y="78" font-family="Poppins, Arial, sans-serif" font-size="13" font-weight="400" fill="#939598" letter-spacing="0.5">Designed by Nexgen Cloudware</text>
</svg>
