<svg xmlns="http://www.w3.org/2000/svg" viewBox="0 0 420 115" fill="none">
  <!-- Speech bubble -->
  <ellipse cx="52" cy="48" rx="44" ry="42" fill="rgba(0,188,212,0.06)"/>
  <ellipse cx="52" cy="48" rx="44" ry="42" fill="none" stroke="url(#bubbleGradL)" stroke-width="3.5"/>
  <path d="M38 86 L28 100 L52 90" fill="rgba(0,188,212,0.1)" stroke="url(#bubbleGradL)" stroke-width="2.5" stroke-linejoin="round"/>
  <ellipse cx="52" cy="48" rx="37" ry="35" fill="rgba(255,255,255,0.8)"/>

  <!-- Brain body -->
  <ellipse cx="52" cy="50" rx="22" ry="20" fill="#FFB3B3" opacity="0.9"/>
  <path d="M35 46 Q40 38 47 42 Q52 36 57 42 Q64 38 68 46" stroke="#e8898a" stroke-width="2" fill="none" stroke-linecap="round"/>
  <path d="M36 52 Q41 58 48 54 Q52 60 56 54 Q62 58 68 52" stroke="#e8898a" stroke-width="1.5" fill="none" stroke-linecap="round"/>
  <circle cx="45" cy="48" r="4.5" fill="white"/>
  <circle cx="59" cy="48" r="4.5" fill="white"/>
  <circle cx="46" cy="48" r="2.5" fill="#5B8DEF"/>
  <circle cx="60" cy="48" r="2.5" fill="#5B8DEF"/>
  <circle cx="47" cy="47" r="1" fill="white"/>
  <circle cx="61" cy="47" r="1" fill="white"/>
  <ellipse cx="41" cy="54" rx="4" ry="2.5" fill="#FFB3C6" opacity="0.7"/>
  <ellipse cx="63" cy="54" rx="4" ry="2.5" fill="#FFB3C6" opacity="0.7"/>
  <path d="M46 57 Q52 62 58 57" stroke="#e8898a" stroke-width="1.8" fill="none" stroke-linecap="round"/>
  <path d="M30 55 Q25 52 27 47 L30 48" stroke="#FFB3B3" stroke-width="2.5" fill="none" stroke-linecap="round"/>
  <path d="M74 55 Q79 52 77 47 L74 48" stroke="#FFB3B3" stroke-width="2.5" fill="none" stroke-linecap="round"/>

  <!-- Headphones -->
  <path d="M32 46 Q32 28 52 28 Q72 28 72 46" stroke="#7B2FBE" stroke-width="3.5" fill="none" stroke-linecap="round"/>
  <rect x="27" y="44" width="10" height="14" rx="5" fill="#7B2FBE"/>
  <rect x="67" y="44" width="10" height="14" rx="5" fill="#7B2FBE"/>
  <path d="M67 55 Q60 65 55 65" stroke="#939598" stroke-width="2" stroke-linecap="round"/>
  <circle cx="55" cy="65" r="3" fill="#7B2FBE"/>
  <circle cx="55" cy="65" r="1.5" fill="#a78bfa"/>

  <defs>
    <linearGradient id="bubbleGradL" x1="0%" y1="0%" x2="100%" y2="100%">
      <stop offset="0%" stop-color="#00BCD4"/>
      <stop offset="100%" stop-color="#7B2FBE"/>
    </linearGradient>
    <linearGradient id="badgeGradL" x1="0%" y1="0%" x2="100%" y2="0%">
      <stop offset="0%" stop-color="#00BCD4"/>
      <stop offset="100%" stop-color="#7B2FBE"/>
    </linearGradient>
  </defs>

  <!-- TEXT -->
  <text x="112" y="55" font-family="Poppins, Arial, sans-serif" font-size="46" font-weight="800" letter-spacing="-1" fill="#22038C">Angie</text>
  <rect x="113" y="62" width="30" height="18" rx="9" fill="url(#badgeGradL)"/>
  <text x="117" y="75" font-family="Poppins, Arial, sans-serif" font-size="10" font-weight="700" fill="white" letter-spacing="1">AI</text>
  <text x="147" y="75" font-family="Poppins, Arial, sans-serif" font-size="12" font-weight="400" fill="#939598" letter-spacing="0.5">· Asistente Empresarial</text>
  <text x="113" y="94" font-family="Poppins, Arial, sans-serif" font-size="11.5" font-weight="400" fill="#939598" letter-spacing="0.5">Designed by Nexgen Cloudware</text>
</svg>
